<?xml version="1.0" encoding="UTF-8" standalone="no"?>
<svg
   viewBox="0 0 48 48"
   width="48"
   height="48"
   clip-rule="evenodd"
   version="1.1"
   id="svg4"
   sodipodi:docname="copperLangIcon.svg"
   inkscape:version="1.3.2 (091e20e, 2023-11-25, custom)"
   xmlns:inkscape="http://www.inkscape.org/namespaces/inkscape"
   xmlns:sodipodi="http://sodipodi.sourceforge.net/DTD/sodipodi-0.dtd"
   xmlns="http://www.w3.org/2000/svg"
   xmlns:svg="http://www.w3.org/2000/svg">
  <sodipodi:namedview
     id="namedview1"
     pagecolor="#505050"
     bordercolor="#ffffff"
     borderopacity="1"
     inkscape:showpageshadow="0"
     inkscape:pageopacity="0"
     inkscape:pagecheckerboard="1"
     inkscape:deskcolor="#505050"
     inkscape:zoom="15.645833"
     inkscape:cx="24"
     inkscape:cy="24"
     inkscape:window-width="1920"
     inkscape:window-height="1051"
     inkscape:window-x="-9"
     inkscape:window-y="-9"
     inkscape:window-maximized="1"
     inkscape:current-layer="svg4" />
  <defs
     id="defs4" />
  <path
     fill="#283593"
     fill-rule="evenodd"
     d="m 22.903,3.286 c 0.679,-0.381 1.515,-0.381 2.193,0 3.355,1.883 13.451,7.551 16.807,9.434 0.679,0.38 1.097,1.084 1.097,1.846 0,3.766 0,15.101 0,18.867 0,0.762 -0.418,1.466 -1.097,1.847 -3.355,1.883 -13.451,7.551 -16.807,9.434 -0.679,0.381 -1.515,0.381 -2.193,0 C 19.548,42.831 9.452,37.163 6.096,35.28 5.418,34.899 5,34.196 5,33.434 5,29.668 5,18.333 5,14.567 5,13.805 5.418,13.101 6.097,12.72 9.451,10.837 19.549,5.169 22.903,3.286 Z"
     clip-rule="evenodd"
     id="path1"
     style="fill:#393939;fill-opacity:1" />
  <path
     fill="#5c6bc0"
     fill-rule="evenodd"
     d="M 5.304,34.404 C 5.038,34.048 5,33.71 5,33.255 5,29.511 5,18.241 5,14.496 5,13.738 5.417,13.038 6.094,12.66 9.437,10.788 19.499,5.153 22.842,3.28 c 0.677,-0.379 1.594,-0.371 2.271,0.008 3.343,1.872 13.371,7.459 16.714,9.331 0.27,0.152 0.476,0.335 0.66,0.576 z"
     clip-rule="evenodd"
     id="path2"
     style="fill:#696969;fill-opacity:1" />
  <path
     fill="#ffffff"
     fill-rule="evenodd"
     d="m 24,10 c 7.727,0 14,6.273 14,14 0,7.727 -6.273,14 -14,14 -7.727,0 -14,-6.273 -14,-14 0,-7.727 6.273,-14 14,-14 z m 0,7 c 3.863,0 7,3.136 7,7 0,3.863 -3.137,7 -7,7 -3.863,0 -7,-3.137 -7,-7 0,-3.864 3.136,-7 7,-7 z"
     clip-rule="evenodd"
     id="path3" />
  <path
     fill="#3949ab"
     fill-rule="evenodd"
     d="m 42.513674,13.205 c 0.516,0.483 0.506,1.211 0.506,1.784 0,3.795 -0.032,14.589 0.009,18.384 0.004,0.396 -0.127,0.813 -0.323,1.127 L 23.621674,24 Z"
     clip-rule="evenodd"
     id="path4"
     style="fill:#464646;fill-opacity:1" />
</svg>
